<mxfile host="Electron" modified="2024-06-20T16:54:17.045Z" agent="Mozilla/5.0 (Macintosh; Intel Mac OS X 10_15_7) AppleWebKit/537.36 (KHTML, like Gecko) draw.io/24.5.3 Chrome/124.0.6367.207 Electron/30.0.6 Safari/537.36" etag="TW1hwk3JyhHRT-YfZkay" version="24.5.3" type="device">
  <diagram name="overall-system-design" id="MEPUi1dCKYuNAvy4_g9Y">
    <mxGraphModel dx="798" dy="671" grid="1" gridSize="10" guides="1" tooltips="1" connect="1" arrows="1" fold="1" page="1" pageScale="1" pageWidth="850" pageHeight="1100" math="0" shadow="0">
      <root>
        <mxCell id="0" />
        <mxCell id="1" parent="0" />
        <mxCell id="YYn6IUKF3a_wOfG9WKZp-17" value="" style="rounded=0;whiteSpace=wrap;html=1;" parent="1" vertex="1">
          <mxGeometry x="1080" y="490" width="320" height="160" as="geometry" />
        </mxCell>
        <mxCell id="YYn6IUKF3a_wOfG9WKZp-3" value="" style="rounded=0;whiteSpace=wrap;html=1;" parent="1" vertex="1">
          <mxGeometry x="40" y="250" width="520" height="270" as="geometry" />
        </mxCell>
        <mxCell id="YYn6IUKF3a_wOfG9WKZp-6" value="MoviePy Service" style="html=1;dropTarget=0;whiteSpace=wrap;" parent="1" vertex="1">
          <mxGeometry x="50" y="460" width="329.11" height="50" as="geometry" />
        </mxCell>
        <mxCell id="YYn6IUKF3a_wOfG9WKZp-7" value="" style="shape=module;jettyWidth=8;jettyHeight=4;" parent="YYn6IUKF3a_wOfG9WKZp-6" vertex="1">
          <mxGeometry x="1" width="20" height="20" relative="1" as="geometry">
            <mxPoint x="-27" y="7" as="offset" />
          </mxGeometry>
        </mxCell>
        <mxCell id="YYn6IUKF3a_wOfG9WKZp-4" value="FFMPEG Service" style="html=1;dropTarget=0;whiteSpace=wrap;" parent="1" vertex="1">
          <mxGeometry x="389.10555555555555" y="460" width="161.77777777777777" height="50" as="geometry" />
        </mxCell>
        <mxCell id="YYn6IUKF3a_wOfG9WKZp-5" value="" style="shape=module;jettyWidth=8;jettyHeight=4;" parent="YYn6IUKF3a_wOfG9WKZp-4" vertex="1">
          <mxGeometry x="1" width="20" height="20" relative="1" as="geometry">
            <mxPoint x="-27" y="7" as="offset" />
          </mxGeometry>
        </mxCell>
        <mxCell id="YYn6IUKF3a_wOfG9WKZp-1" value="«Component» &lt;b&gt;Video Producer&lt;/b&gt;" style="html=1;dropTarget=0;whiteSpace=wrap;" parent="1" vertex="1">
          <mxGeometry x="40" y="220" width="520" height="30" as="geometry" />
        </mxCell>
        <mxCell id="YYn6IUKF3a_wOfG9WKZp-2" value="" style="shape=module;jettyWidth=8;jettyHeight=4;" parent="YYn6IUKF3a_wOfG9WKZp-1" vertex="1">
          <mxGeometry x="1" width="20" height="20" relative="1" as="geometry">
            <mxPoint x="-27" y="7" as="offset" />
          </mxGeometry>
        </mxCell>
        <mxCell id="YYn6IUKF3a_wOfG9WKZp-22" value="ConfTool Interface" style="html=1;dropTarget=0;whiteSpace=wrap;" parent="1" vertex="1">
          <mxGeometry x="1200" y="525" width="180" height="90" as="geometry" />
        </mxCell>
        <mxCell id="YYn6IUKF3a_wOfG9WKZp-23" value="" style="shape=module;jettyWidth=8;jettyHeight=4;" parent="YYn6IUKF3a_wOfG9WKZp-22" vertex="1">
          <mxGeometry x="1" width="20" height="20" relative="1" as="geometry">
            <mxPoint x="-27" y="7" as="offset" />
          </mxGeometry>
        </mxCell>
        <mxCell id="YYn6IUKF3a_wOfG9WKZp-31" value="" style="rounded=0;whiteSpace=wrap;html=1;" parent="1" vertex="1">
          <mxGeometry x="290" y="450" width="20" height="20" as="geometry" />
        </mxCell>
        <mxCell id="YYn6IUKF3a_wOfG9WKZp-32" value="Manager" style="html=1;dropTarget=0;whiteSpace=wrap;" parent="1" vertex="1">
          <mxGeometry x="210" y="270" width="180" height="90" as="geometry" />
        </mxCell>
        <mxCell id="YYn6IUKF3a_wOfG9WKZp-33" value="" style="shape=module;jettyWidth=8;jettyHeight=4;" parent="YYn6IUKF3a_wOfG9WKZp-32" vertex="1">
          <mxGeometry x="1" width="20" height="20" relative="1" as="geometry">
            <mxPoint x="-27" y="7" as="offset" />
          </mxGeometry>
        </mxCell>
        <mxCell id="YYn6IUKF3a_wOfG9WKZp-45" style="edgeStyle=orthogonalEdgeStyle;rounded=0;orthogonalLoop=1;jettySize=auto;html=1;exitX=1;exitY=0.5;exitDx=0;exitDy=0;exitPerimeter=0;entryX=0.5;entryY=1;entryDx=0;entryDy=0;endArrow=none;endFill=0;" parent="1" source="YYn6IUKF3a_wOfG9WKZp-35" target="YYn6IUKF3a_wOfG9WKZp-38" edge="1">
          <mxGeometry relative="1" as="geometry" />
        </mxCell>
        <mxCell id="YYn6IUKF3a_wOfG9WKZp-35" value="" style="shape=providedRequiredInterface;html=1;verticalLabelPosition=bottom;sketch=0;rotation=-90;" parent="1" vertex="1">
          <mxGeometry x="290" y="410" width="20" height="20" as="geometry" />
        </mxCell>
        <mxCell id="YYn6IUKF3a_wOfG9WKZp-48" style="edgeStyle=orthogonalEdgeStyle;rounded=0;orthogonalLoop=1;jettySize=auto;html=1;exitX=1;exitY=0.5;exitDx=0;exitDy=0;exitPerimeter=0;entryX=0.5;entryY=1;entryDx=0;entryDy=0;endArrow=none;endFill=0;" parent="1" source="YYn6IUKF3a_wOfG9WKZp-36" target="YYn6IUKF3a_wOfG9WKZp-39" edge="1">
          <mxGeometry relative="1" as="geometry" />
        </mxCell>
        <mxCell id="YYn6IUKF3a_wOfG9WKZp-36" value="" style="shape=providedRequiredInterface;html=1;verticalLabelPosition=bottom;sketch=0;rotation=-90;" parent="1" vertex="1">
          <mxGeometry x="459.99" y="410" width="20" height="20" as="geometry" />
        </mxCell>
        <mxCell id="YYn6IUKF3a_wOfG9WKZp-44" style="edgeStyle=orthogonalEdgeStyle;rounded=0;orthogonalLoop=1;jettySize=auto;html=1;exitX=1;exitY=0.5;exitDx=0;exitDy=0;exitPerimeter=0;entryX=0.5;entryY=1;entryDx=0;entryDy=0;endArrow=none;endFill=0;" parent="1" source="YYn6IUKF3a_wOfG9WKZp-37" target="YYn6IUKF3a_wOfG9WKZp-40" edge="1">
          <mxGeometry relative="1" as="geometry" />
        </mxCell>
        <mxCell id="YYn6IUKF3a_wOfG9WKZp-37" value="" style="shape=providedRequiredInterface;html=1;verticalLabelPosition=bottom;sketch=0;rotation=-90;" parent="1" vertex="1">
          <mxGeometry x="119.11000000000001" y="410" width="20" height="20" as="geometry" />
        </mxCell>
        <mxCell id="YYn6IUKF3a_wOfG9WKZp-38" value="" style="rounded=0;whiteSpace=wrap;html=1;" parent="1" vertex="1">
          <mxGeometry x="290" y="350" width="20" height="20" as="geometry" />
        </mxCell>
        <mxCell id="YYn6IUKF3a_wOfG9WKZp-39" value="" style="rounded=0;whiteSpace=wrap;html=1;" parent="1" vertex="1">
          <mxGeometry x="340" y="350" width="20" height="20" as="geometry" />
        </mxCell>
        <mxCell id="YYn6IUKF3a_wOfG9WKZp-40" value="" style="rounded=0;whiteSpace=wrap;html=1;" parent="1" vertex="1">
          <mxGeometry x="240" y="350" width="20" height="20" as="geometry" />
        </mxCell>
        <mxCell id="YYn6IUKF3a_wOfG9WKZp-41" value="" style="rounded=0;whiteSpace=wrap;html=1;" parent="1" vertex="1">
          <mxGeometry x="119.11000000000001" y="450" width="20" height="20" as="geometry" />
        </mxCell>
        <mxCell id="YYn6IUKF3a_wOfG9WKZp-42" value="" style="rounded=0;whiteSpace=wrap;html=1;" parent="1" vertex="1">
          <mxGeometry x="459.99" y="450" width="20" height="20" as="geometry" />
        </mxCell>
        <mxCell id="YYn6IUKF3a_wOfG9WKZp-43" style="edgeStyle=orthogonalEdgeStyle;rounded=0;orthogonalLoop=1;jettySize=auto;html=1;exitX=0.5;exitY=0;exitDx=0;exitDy=0;entryX=0;entryY=0.5;entryDx=0;entryDy=0;entryPerimeter=0;endArrow=none;endFill=0;" parent="1" source="YYn6IUKF3a_wOfG9WKZp-41" target="YYn6IUKF3a_wOfG9WKZp-37" edge="1">
          <mxGeometry relative="1" as="geometry" />
        </mxCell>
        <mxCell id="YYn6IUKF3a_wOfG9WKZp-46" style="edgeStyle=orthogonalEdgeStyle;rounded=0;orthogonalLoop=1;jettySize=auto;html=1;exitX=0.5;exitY=0;exitDx=0;exitDy=0;entryX=0;entryY=0.5;entryDx=0;entryDy=0;entryPerimeter=0;endArrow=none;endFill=0;" parent="1" source="YYn6IUKF3a_wOfG9WKZp-31" target="YYn6IUKF3a_wOfG9WKZp-35" edge="1">
          <mxGeometry relative="1" as="geometry" />
        </mxCell>
        <mxCell id="YYn6IUKF3a_wOfG9WKZp-47" style="edgeStyle=orthogonalEdgeStyle;rounded=0;orthogonalLoop=1;jettySize=auto;html=1;exitX=0.5;exitY=0;exitDx=0;exitDy=0;entryX=0;entryY=0.5;entryDx=0;entryDy=0;entryPerimeter=0;endArrow=none;endFill=0;" parent="1" source="YYn6IUKF3a_wOfG9WKZp-42" target="YYn6IUKF3a_wOfG9WKZp-36" edge="1">
          <mxGeometry relative="1" as="geometry" />
        </mxCell>
        <mxCell id="YYn6IUKF3a_wOfG9WKZp-49" value="&lt;span style=&quot;font-weight: normal; font-size: 9px;&quot;&gt;&lt;font style=&quot;font-size: 9px;&quot;&gt;Resampling&lt;/font&gt;&lt;/span&gt;&lt;div style=&quot;font-size: 9px;&quot;&gt;&lt;span style=&quot;font-weight: normal;&quot;&gt;&lt;font style=&quot;font-size: 9px;&quot;&gt;Service&lt;/font&gt;&lt;/span&gt;&lt;/div&gt;" style="text;align=left;fontStyle=1;verticalAlign=middle;spacingLeft=3;spacingRight=3;strokeColor=none;rotatable=0;points=[[0,0.5],[1,0.5]];portConstraint=eastwest;html=1;" parent="1" vertex="1">
          <mxGeometry x="479.99" y="407" width="80" height="26" as="geometry" />
        </mxCell>
        <mxCell id="YYn6IUKF3a_wOfG9WKZp-50" value="&lt;div&gt;&lt;font size=&quot;1&quot;&gt;&lt;span style=&quot;font-weight: 400;&quot;&gt;Video&lt;/span&gt;&lt;/font&gt;&lt;/div&gt;&lt;font size=&quot;1&quot;&gt;&lt;span style=&quot;font-weight: 400;&quot;&gt;Assembling&lt;/span&gt;&lt;/font&gt;" style="text;align=left;fontStyle=1;verticalAlign=middle;spacingLeft=3;spacingRight=3;strokeColor=none;rotatable=0;points=[[0,0.5],[1,0.5]];portConstraint=eastwest;html=1;" parent="1" vertex="1">
          <mxGeometry x="310" y="407" width="80" height="26" as="geometry" />
        </mxCell>
        <mxCell id="YYn6IUKF3a_wOfG9WKZp-51" value="&lt;font size=&quot;1&quot;&gt;&lt;span style=&quot;font-weight: 400;&quot;&gt;Video Producer&lt;/span&gt;&lt;/font&gt;&lt;div&gt;&lt;font size=&quot;1&quot;&gt;&lt;span style=&quot;font-weight: 400;&quot;&gt;Slides Creator&lt;/span&gt;&lt;/font&gt;&lt;/div&gt;" style="text;align=left;fontStyle=1;verticalAlign=middle;spacingLeft=3;spacingRight=3;strokeColor=none;rotatable=0;points=[[0,0.5],[1,0.5]];portConstraint=eastwest;html=1;" parent="1" vertex="1">
          <mxGeometry x="139.11" y="407" width="80" height="26" as="geometry" />
        </mxCell>
        <mxCell id="YYn6IUKF3a_wOfG9WKZp-24" value="«Component» &lt;b&gt;Data Sender&lt;/b&gt;" style="html=1;dropTarget=0;whiteSpace=wrap;" parent="1" vertex="1">
          <mxGeometry x="1080" y="220" width="320" height="30" as="geometry" />
        </mxCell>
        <mxCell id="YYn6IUKF3a_wOfG9WKZp-25" value="" style="shape=module;jettyWidth=8;jettyHeight=4;" parent="YYn6IUKF3a_wOfG9WKZp-24" vertex="1">
          <mxGeometry x="1" width="20" height="20" relative="1" as="geometry">
            <mxPoint x="-27" y="7" as="offset" />
          </mxGeometry>
        </mxCell>
        <mxCell id="YYn6IUKF3a_wOfG9WKZp-26" value="" style="rounded=0;whiteSpace=wrap;html=1;" parent="1" vertex="1">
          <mxGeometry x="1080" y="250" width="320" height="180" as="geometry" />
        </mxCell>
        <mxCell id="YYn6IUKF3a_wOfG9WKZp-27" value="YouTube Interface" style="html=1;dropTarget=0;whiteSpace=wrap;" parent="1" vertex="1">
          <mxGeometry x="1200" y="290" width="180" height="90" as="geometry" />
        </mxCell>
        <mxCell id="YYn6IUKF3a_wOfG9WKZp-28" value="" style="shape=module;jettyWidth=8;jettyHeight=4;" parent="YYn6IUKF3a_wOfG9WKZp-27" vertex="1">
          <mxGeometry x="1" width="20" height="20" relative="1" as="geometry">
            <mxPoint x="-27" y="7" as="offset" />
          </mxGeometry>
        </mxCell>
        <mxCell id="YYn6IUKF3a_wOfG9WKZp-53" value="«Subsystem» &lt;b&gt;LACCEI Videos Preparer&lt;/b&gt;" style="html=1;dropTarget=0;whiteSpace=wrap;" parent="1" vertex="1">
          <mxGeometry x="660" y="40" width="320" height="30" as="geometry" />
        </mxCell>
        <mxCell id="YYn6IUKF3a_wOfG9WKZp-54" value="" style="shape=module;jettyWidth=8;jettyHeight=4;" parent="YYn6IUKF3a_wOfG9WKZp-53" vertex="1">
          <mxGeometry x="1" width="20" height="20" relative="1" as="geometry">
            <mxPoint x="-27" y="7" as="offset" />
          </mxGeometry>
        </mxCell>
        <mxCell id="YYn6IUKF3a_wOfG9WKZp-55" value="" style="rounded=0;whiteSpace=wrap;html=1;" parent="1" vertex="1">
          <mxGeometry x="660" y="70" width="320" height="180" as="geometry" />
        </mxCell>
        <mxCell id="YYn6IUKF3a_wOfG9WKZp-56" value="Videos Preparer" style="html=1;dropTarget=0;whiteSpace=wrap;" parent="1" vertex="1">
          <mxGeometry x="720" y="100" width="180" height="90" as="geometry" />
        </mxCell>
        <mxCell id="YYn6IUKF3a_wOfG9WKZp-57" value="" style="shape=module;jettyWidth=8;jettyHeight=4;" parent="YYn6IUKF3a_wOfG9WKZp-56" vertex="1">
          <mxGeometry x="1" width="20" height="20" relative="1" as="geometry">
            <mxPoint x="-27" y="7" as="offset" />
          </mxGeometry>
        </mxCell>
        <mxCell id="YYn6IUKF3a_wOfG9WKZp-15" value="«Component» &lt;b&gt;Data Retriever&lt;/b&gt;" style="html=1;dropTarget=0;whiteSpace=wrap;" parent="1" vertex="1">
          <mxGeometry x="1080" y="460" width="320" height="30" as="geometry" />
        </mxCell>
        <mxCell id="YYn6IUKF3a_wOfG9WKZp-16" value="" style="shape=module;jettyWidth=8;jettyHeight=4;" parent="YYn6IUKF3a_wOfG9WKZp-15" vertex="1">
          <mxGeometry x="1" width="20" height="20" relative="1" as="geometry">
            <mxPoint x="-27" y="7" as="offset" />
          </mxGeometry>
        </mxCell>
        <mxCell id="YYn6IUKF3a_wOfG9WKZp-66" style="edgeStyle=orthogonalEdgeStyle;rounded=0;orthogonalLoop=1;jettySize=auto;html=1;exitX=1;exitY=0.5;exitDx=0;exitDy=0;endArrow=none;endFill=0;" parent="1" source="YYn6IUKF3a_wOfG9WKZp-58" edge="1">
          <mxGeometry relative="1" as="geometry">
            <mxPoint x="610" y="315.2380952380952" as="targetPoint" />
          </mxGeometry>
        </mxCell>
        <mxCell id="YYn6IUKF3a_wOfG9WKZp-70" style="edgeStyle=orthogonalEdgeStyle;rounded=0;orthogonalLoop=1;jettySize=auto;html=1;exitX=0;exitY=0.5;exitDx=0;exitDy=0;endArrow=none;endFill=0;" parent="1" source="YYn6IUKF3a_wOfG9WKZp-58" edge="1">
          <mxGeometry relative="1" as="geometry">
            <mxPoint x="480" y="315.02439024390253" as="targetPoint" />
          </mxGeometry>
        </mxCell>
        <mxCell id="YYn6IUKF3a_wOfG9WKZp-58" value="" style="rounded=0;whiteSpace=wrap;html=1;" parent="1" vertex="1">
          <mxGeometry x="550.88" y="305" width="20" height="20" as="geometry" />
        </mxCell>
        <mxCell id="YYn6IUKF3a_wOfG9WKZp-96" style="edgeStyle=orthogonalEdgeStyle;rounded=0;orthogonalLoop=1;jettySize=auto;html=1;exitX=0;exitY=0.5;exitDx=0;exitDy=0;entryX=1;entryY=0.5;entryDx=0;entryDy=0;endArrow=none;endFill=0;" parent="1" source="YYn6IUKF3a_wOfG9WKZp-59" target="YYn6IUKF3a_wOfG9WKZp-93" edge="1">
          <mxGeometry relative="1" as="geometry" />
        </mxCell>
        <mxCell id="YYn6IUKF3a_wOfG9WKZp-59" value="" style="rounded=0;whiteSpace=wrap;html=1;" parent="1" vertex="1">
          <mxGeometry x="1070" y="325" width="20" height="20" as="geometry" />
        </mxCell>
        <mxCell id="YYn6IUKF3a_wOfG9WKZp-97" style="edgeStyle=orthogonalEdgeStyle;rounded=0;orthogonalLoop=1;jettySize=auto;html=1;exitX=0;exitY=0.5;exitDx=0;exitDy=0;entryX=1;entryY=0.5;entryDx=0;entryDy=0;endArrow=none;endFill=0;" parent="1" source="YYn6IUKF3a_wOfG9WKZp-60" target="YYn6IUKF3a_wOfG9WKZp-94" edge="1">
          <mxGeometry relative="1" as="geometry" />
        </mxCell>
        <mxCell id="YYn6IUKF3a_wOfG9WKZp-60" value="" style="rounded=0;whiteSpace=wrap;html=1;" parent="1" vertex="1">
          <mxGeometry x="1070" y="540" width="20" height="20" as="geometry" />
        </mxCell>
        <mxCell id="YYn6IUKF3a_wOfG9WKZp-61" value="" style="rounded=0;whiteSpace=wrap;html=1;" parent="1" vertex="1">
          <mxGeometry x="780" y="240" width="20" height="20" as="geometry" />
        </mxCell>
        <mxCell id="YYn6IUKF3a_wOfG9WKZp-138" style="edgeStyle=orthogonalEdgeStyle;rounded=0;orthogonalLoop=1;jettySize=auto;html=1;exitX=1;exitY=0.5;exitDx=0;exitDy=0;entryX=0;entryY=0.5;entryDx=0;entryDy=0;endArrow=none;endFill=0;" parent="1" source="YYn6IUKF3a_wOfG9WKZp-62" target="YYn6IUKF3a_wOfG9WKZp-135" edge="1">
          <mxGeometry relative="1" as="geometry" />
        </mxCell>
        <mxCell id="YYn6IUKF3a_wOfG9WKZp-62" value="" style="rounded=0;whiteSpace=wrap;html=1;" parent="1" vertex="1">
          <mxGeometry x="970" y="135" width="20" height="20" as="geometry" />
        </mxCell>
        <mxCell id="YYn6IUKF3a_wOfG9WKZp-64" value="" style="ellipse;whiteSpace=wrap;html=1;align=center;aspect=fixed;fillColor=none;strokeColor=none;resizable=0;perimeter=centerPerimeter;rotatable=0;allowArrows=0;points=[];outlineConnect=1;" parent="1" vertex="1">
          <mxGeometry x="730" y="380" width="10" height="10" as="geometry" />
        </mxCell>
        <mxCell id="YYn6IUKF3a_wOfG9WKZp-69" style="edgeStyle=orthogonalEdgeStyle;rounded=0;orthogonalLoop=1;jettySize=auto;html=1;exitX=1;exitY=0.5;exitDx=0;exitDy=0;endArrow=none;endFill=0;" parent="1" source="YYn6IUKF3a_wOfG9WKZp-67" edge="1">
          <mxGeometry relative="1" as="geometry">
            <mxPoint x="460" y="315.0819672131148" as="targetPoint" />
          </mxGeometry>
        </mxCell>
        <mxCell id="YYn6IUKF3a_wOfG9WKZp-67" value="" style="rounded=0;whiteSpace=wrap;html=1;" parent="1" vertex="1">
          <mxGeometry x="379.11" y="305" width="20" height="20" as="geometry" />
        </mxCell>
        <mxCell id="YYn6IUKF3a_wOfG9WKZp-71" value="" style="rounded=0;whiteSpace=wrap;html=1;" parent="1" vertex="1">
          <mxGeometry x="740" y="240" width="20" height="20" as="geometry" />
        </mxCell>
        <mxCell id="YYn6IUKF3a_wOfG9WKZp-72" value="" style="rounded=0;whiteSpace=wrap;html=1;" parent="1" vertex="1">
          <mxGeometry x="820" y="240" width="20" height="20" as="geometry" />
        </mxCell>
        <mxCell id="YYn6IUKF3a_wOfG9WKZp-73" value="" style="ellipse;whiteSpace=wrap;html=1;" parent="1" vertex="1">
          <mxGeometry x="459.99" y="305" width="20" height="20" as="geometry" />
        </mxCell>
        <mxCell id="YYn6IUKF3a_wOfG9WKZp-74" value="" style="ellipse;whiteSpace=wrap;html=1;" parent="1" vertex="1">
          <mxGeometry x="610" y="305" width="20" height="20" as="geometry" />
        </mxCell>
        <mxCell id="YYn6IUKF3a_wOfG9WKZp-91" style="edgeStyle=orthogonalEdgeStyle;rounded=0;orthogonalLoop=1;jettySize=auto;html=1;exitX=0;exitY=0.5;exitDx=0;exitDy=0;entryX=1;entryY=0.5;entryDx=0;entryDy=0;endArrow=none;endFill=0;" parent="1" source="YYn6IUKF3a_wOfG9WKZp-75" target="YYn6IUKF3a_wOfG9WKZp-82" edge="1">
          <mxGeometry relative="1" as="geometry" />
        </mxCell>
        <mxCell id="YYn6IUKF3a_wOfG9WKZp-75" value="" style="rounded=0;whiteSpace=wrap;html=1;" parent="1" vertex="1">
          <mxGeometry x="1190" y="325" width="20" height="20" as="geometry" />
        </mxCell>
        <mxCell id="YYn6IUKF3a_wOfG9WKZp-98" style="edgeStyle=orthogonalEdgeStyle;rounded=0;orthogonalLoop=1;jettySize=auto;html=1;exitX=0;exitY=0.5;exitDx=0;exitDy=0;entryX=1;entryY=0.5;entryDx=0;entryDy=0;endArrow=none;endFill=0;" parent="1" source="YYn6IUKF3a_wOfG9WKZp-76" target="YYn6IUKF3a_wOfG9WKZp-95" edge="1">
          <mxGeometry relative="1" as="geometry" />
        </mxCell>
        <mxCell id="YYn6IUKF3a_wOfG9WKZp-76" value="" style="rounded=0;whiteSpace=wrap;html=1;" parent="1" vertex="1">
          <mxGeometry x="1070" y="580" width="20" height="20" as="geometry" />
        </mxCell>
        <mxCell id="YYn6IUKF3a_wOfG9WKZp-77" value="" style="rounded=0;whiteSpace=wrap;html=1;" parent="1" vertex="1">
          <mxGeometry x="860" y="240" width="20" height="20" as="geometry" />
        </mxCell>
        <mxCell id="YYn6IUKF3a_wOfG9WKZp-78" value="" style="rounded=0;whiteSpace=wrap;html=1;" parent="1" vertex="1">
          <mxGeometry x="780" y="180" width="20" height="20" as="geometry" />
        </mxCell>
        <mxCell id="YYn6IUKF3a_wOfG9WKZp-79" value="" style="rounded=0;whiteSpace=wrap;html=1;" parent="1" vertex="1">
          <mxGeometry x="740" y="180" width="20" height="20" as="geometry" />
        </mxCell>
        <mxCell id="YYn6IUKF3a_wOfG9WKZp-80" value="" style="rounded=0;whiteSpace=wrap;html=1;" parent="1" vertex="1">
          <mxGeometry x="820" y="180" width="20" height="20" as="geometry" />
        </mxCell>
        <mxCell id="YYn6IUKF3a_wOfG9WKZp-81" value="" style="rounded=0;whiteSpace=wrap;html=1;" parent="1" vertex="1">
          <mxGeometry x="860" y="180" width="20" height="20" as="geometry" />
        </mxCell>
        <mxCell id="YYn6IUKF3a_wOfG9WKZp-92" style="edgeStyle=orthogonalEdgeStyle;rounded=0;orthogonalLoop=1;jettySize=auto;html=1;exitX=0;exitY=0.5;exitDx=0;exitDy=0;entryX=1;entryY=0.5;entryDx=0;entryDy=0;endArrow=none;endFill=0;" parent="1" source="YYn6IUKF3a_wOfG9WKZp-82" target="YYn6IUKF3a_wOfG9WKZp-59" edge="1">
          <mxGeometry relative="1" as="geometry" />
        </mxCell>
        <mxCell id="YYn6IUKF3a_wOfG9WKZp-82" value="" style="ellipse;whiteSpace=wrap;html=1;" parent="1" vertex="1">
          <mxGeometry x="1130" y="325" width="20" height="20" as="geometry" />
        </mxCell>
        <mxCell id="YYn6IUKF3a_wOfG9WKZp-88" style="edgeStyle=orthogonalEdgeStyle;rounded=0;orthogonalLoop=1;jettySize=auto;html=1;exitX=0;exitY=0.5;exitDx=0;exitDy=0;entryX=1;entryY=0.5;entryDx=0;entryDy=0;endArrow=none;endFill=0;" parent="1" source="YYn6IUKF3a_wOfG9WKZp-83" target="YYn6IUKF3a_wOfG9WKZp-60" edge="1">
          <mxGeometry relative="1" as="geometry" />
        </mxCell>
        <mxCell id="YYn6IUKF3a_wOfG9WKZp-83" value="" style="ellipse;whiteSpace=wrap;html=1;" parent="1" vertex="1">
          <mxGeometry x="1130" y="540" width="20" height="20" as="geometry" />
        </mxCell>
        <mxCell id="YYn6IUKF3a_wOfG9WKZp-87" style="edgeStyle=orthogonalEdgeStyle;rounded=0;orthogonalLoop=1;jettySize=auto;html=1;exitX=0;exitY=0.5;exitDx=0;exitDy=0;entryX=1;entryY=0.5;entryDx=0;entryDy=0;endArrow=none;endFill=0;" parent="1" source="YYn6IUKF3a_wOfG9WKZp-84" target="YYn6IUKF3a_wOfG9WKZp-83" edge="1">
          <mxGeometry relative="1" as="geometry" />
        </mxCell>
        <mxCell id="YYn6IUKF3a_wOfG9WKZp-84" value="" style="rounded=0;whiteSpace=wrap;html=1;" parent="1" vertex="1">
          <mxGeometry x="1190" y="540" width="20" height="20" as="geometry" />
        </mxCell>
        <mxCell id="YYn6IUKF3a_wOfG9WKZp-89" style="edgeStyle=orthogonalEdgeStyle;rounded=0;orthogonalLoop=1;jettySize=auto;html=1;exitX=0;exitY=0.5;exitDx=0;exitDy=0;entryX=1;entryY=0.5;entryDx=0;entryDy=0;endArrow=none;endFill=0;" parent="1" source="YYn6IUKF3a_wOfG9WKZp-85" target="YYn6IUKF3a_wOfG9WKZp-86" edge="1">
          <mxGeometry relative="1" as="geometry" />
        </mxCell>
        <mxCell id="YYn6IUKF3a_wOfG9WKZp-85" value="" style="rounded=0;whiteSpace=wrap;html=1;" parent="1" vertex="1">
          <mxGeometry x="1190" y="580" width="20" height="20" as="geometry" />
        </mxCell>
        <mxCell id="YYn6IUKF3a_wOfG9WKZp-90" style="edgeStyle=orthogonalEdgeStyle;rounded=0;orthogonalLoop=1;jettySize=auto;html=1;exitX=0;exitY=0.5;exitDx=0;exitDy=0;entryX=1;entryY=0.5;entryDx=0;entryDy=0;endArrow=none;endFill=0;" parent="1" source="YYn6IUKF3a_wOfG9WKZp-86" target="YYn6IUKF3a_wOfG9WKZp-76" edge="1">
          <mxGeometry relative="1" as="geometry" />
        </mxCell>
        <mxCell id="YYn6IUKF3a_wOfG9WKZp-86" value="" style="ellipse;whiteSpace=wrap;html=1;" parent="1" vertex="1">
          <mxGeometry x="1130" y="580" width="20" height="20" as="geometry" />
        </mxCell>
        <mxCell id="YYn6IUKF3a_wOfG9WKZp-93" value="" style="ellipse;whiteSpace=wrap;html=1;" parent="1" vertex="1">
          <mxGeometry x="1000" y="325" width="20" height="20" as="geometry" />
        </mxCell>
        <mxCell id="YYn6IUKF3a_wOfG9WKZp-94" value="" style="ellipse;whiteSpace=wrap;html=1;" parent="1" vertex="1">
          <mxGeometry x="1000" y="540" width="20" height="20" as="geometry" />
        </mxCell>
        <mxCell id="YYn6IUKF3a_wOfG9WKZp-95" value="" style="ellipse;whiteSpace=wrap;html=1;" parent="1" vertex="1">
          <mxGeometry x="1000" y="580" width="20" height="20" as="geometry" />
        </mxCell>
        <mxCell id="YYn6IUKF3a_wOfG9WKZp-99" value="Schedule Retriever" style="text;html=1;align=center;verticalAlign=middle;whiteSpace=wrap;rounded=0;" parent="1" vertex="1">
          <mxGeometry x="980" y="510" width="60" height="30" as="geometry" />
        </mxCell>
        <mxCell id="YYn6IUKF3a_wOfG9WKZp-100" value="Videos Retriever" style="text;html=1;align=center;verticalAlign=middle;whiteSpace=wrap;rounded=0;" parent="1" vertex="1">
          <mxGeometry x="980" y="600" width="60" height="30" as="geometry" />
        </mxCell>
        <mxCell id="YYn6IUKF3a_wOfG9WKZp-101" value="Video Uploader" style="text;html=1;align=center;verticalAlign=middle;whiteSpace=wrap;rounded=0;" parent="1" vertex="1">
          <mxGeometry x="980" y="295" width="60" height="30" as="geometry" />
        </mxCell>
        <mxCell id="YYn6IUKF3a_wOfG9WKZp-102" value="Video Uploader" style="text;html=1;align=center;verticalAlign=middle;whiteSpace=wrap;rounded=0;" parent="1" vertex="1">
          <mxGeometry x="590" y="275" width="60" height="30" as="geometry" />
        </mxCell>
        <mxCell id="YYn6IUKF3a_wOfG9WKZp-124" style="edgeStyle=orthogonalEdgeStyle;rounded=0;orthogonalLoop=1;jettySize=auto;html=1;exitX=0;exitY=0.5;exitDx=0;exitDy=0;exitPerimeter=0;entryX=1;entryY=0.5;entryDx=0;entryDy=0;endArrow=open;endFill=0;dashed=1;" parent="1" source="YYn6IUKF3a_wOfG9WKZp-107" target="YYn6IUKF3a_wOfG9WKZp-74" edge="1">
          <mxGeometry relative="1" as="geometry" />
        </mxCell>
        <mxCell id="YYn6IUKF3a_wOfG9WKZp-107" value="" style="shape=requiredInterface;html=1;verticalLabelPosition=bottom;sketch=0;rotation=0;" parent="1" vertex="1">
          <mxGeometry x="690" y="305" width="10" height="20" as="geometry" />
        </mxCell>
        <mxCell id="YYn6IUKF3a_wOfG9WKZp-132" style="edgeStyle=orthogonalEdgeStyle;rounded=0;orthogonalLoop=1;jettySize=auto;html=1;exitX=0;exitY=0.5;exitDx=0;exitDy=0;exitPerimeter=0;entryX=0;entryY=0.5;entryDx=0;entryDy=0;endArrow=open;endFill=0;dashed=1;" parent="1" source="YYn6IUKF3a_wOfG9WKZp-108" target="YYn6IUKF3a_wOfG9WKZp-95" edge="1">
          <mxGeometry relative="1" as="geometry" />
        </mxCell>
        <mxCell id="YYn6IUKF3a_wOfG9WKZp-108" value="" style="shape=requiredInterface;html=1;verticalLabelPosition=bottom;sketch=0;rotation=-180;" parent="1" vertex="1">
          <mxGeometry x="920" y="580" width="10" height="20" as="geometry" />
        </mxCell>
        <mxCell id="YYn6IUKF3a_wOfG9WKZp-131" style="edgeStyle=orthogonalEdgeStyle;rounded=0;orthogonalLoop=1;jettySize=auto;html=1;exitX=0;exitY=0.5;exitDx=0;exitDy=0;exitPerimeter=0;entryX=0;entryY=0.5;entryDx=0;entryDy=0;endArrow=open;endFill=0;dashed=1;" parent="1" source="YYn6IUKF3a_wOfG9WKZp-109" target="YYn6IUKF3a_wOfG9WKZp-94" edge="1">
          <mxGeometry relative="1" as="geometry" />
        </mxCell>
        <mxCell id="YYn6IUKF3a_wOfG9WKZp-109" value="" style="shape=requiredInterface;html=1;verticalLabelPosition=bottom;sketch=0;rotation=-180;" parent="1" vertex="1">
          <mxGeometry x="920" y="540" width="10" height="20" as="geometry" />
        </mxCell>
        <mxCell id="YYn6IUKF3a_wOfG9WKZp-130" style="edgeStyle=orthogonalEdgeStyle;rounded=0;orthogonalLoop=1;jettySize=auto;html=1;exitX=0;exitY=0.5;exitDx=0;exitDy=0;exitPerimeter=0;entryX=0;entryY=0.5;entryDx=0;entryDy=0;endArrow=open;endFill=0;dashed=1;" parent="1" source="YYn6IUKF3a_wOfG9WKZp-110" target="YYn6IUKF3a_wOfG9WKZp-93" edge="1">
          <mxGeometry relative="1" as="geometry" />
        </mxCell>
        <mxCell id="YYn6IUKF3a_wOfG9WKZp-110" value="" style="shape=requiredInterface;html=1;verticalLabelPosition=bottom;sketch=0;rotation=-180;" parent="1" vertex="1">
          <mxGeometry x="920" y="325" width="10" height="20" as="geometry" />
        </mxCell>
        <mxCell id="YYn6IUKF3a_wOfG9WKZp-122" style="edgeStyle=orthogonalEdgeStyle;rounded=0;orthogonalLoop=1;jettySize=auto;html=1;exitX=0;exitY=0.5;exitDx=0;exitDy=0;exitPerimeter=0;entryX=0.5;entryY=0;entryDx=0;entryDy=0;endArrow=none;endFill=0;" parent="1" source="YYn6IUKF3a_wOfG9WKZp-111" target="YYn6IUKF3a_wOfG9WKZp-71" edge="1">
          <mxGeometry relative="1" as="geometry" />
        </mxCell>
        <mxCell id="YYn6IUKF3a_wOfG9WKZp-111" value="" style="shape=requiredInterface;html=1;verticalLabelPosition=bottom;sketch=0;rotation=-90;" parent="1" vertex="1">
          <mxGeometry x="745" y="210" width="10" height="20" as="geometry" />
        </mxCell>
        <mxCell id="YYn6IUKF3a_wOfG9WKZp-121" style="edgeStyle=orthogonalEdgeStyle;rounded=0;orthogonalLoop=1;jettySize=auto;html=1;exitX=0;exitY=0.5;exitDx=0;exitDy=0;exitPerimeter=0;entryX=0.5;entryY=0;entryDx=0;entryDy=0;endArrow=none;endFill=0;" parent="1" source="YYn6IUKF3a_wOfG9WKZp-112" target="YYn6IUKF3a_wOfG9WKZp-61" edge="1">
          <mxGeometry relative="1" as="geometry" />
        </mxCell>
        <mxCell id="YYn6IUKF3a_wOfG9WKZp-112" value="" style="shape=requiredInterface;html=1;verticalLabelPosition=bottom;sketch=0;rotation=-90;" parent="1" vertex="1">
          <mxGeometry x="785" y="210" width="10" height="20" as="geometry" />
        </mxCell>
        <mxCell id="YYn6IUKF3a_wOfG9WKZp-120" style="edgeStyle=orthogonalEdgeStyle;rounded=0;orthogonalLoop=1;jettySize=auto;html=1;exitX=0;exitY=0.5;exitDx=0;exitDy=0;exitPerimeter=0;entryX=0.5;entryY=0;entryDx=0;entryDy=0;endArrow=none;endFill=0;" parent="1" source="YYn6IUKF3a_wOfG9WKZp-113" target="YYn6IUKF3a_wOfG9WKZp-72" edge="1">
          <mxGeometry relative="1" as="geometry" />
        </mxCell>
        <mxCell id="YYn6IUKF3a_wOfG9WKZp-113" value="" style="shape=requiredInterface;html=1;verticalLabelPosition=bottom;sketch=0;rotation=-90;" parent="1" vertex="1">
          <mxGeometry x="825" y="210" width="10" height="20" as="geometry" />
        </mxCell>
        <mxCell id="YYn6IUKF3a_wOfG9WKZp-119" style="edgeStyle=orthogonalEdgeStyle;rounded=0;orthogonalLoop=1;jettySize=auto;html=1;exitX=0;exitY=0.5;exitDx=0;exitDy=0;exitPerimeter=0;entryX=0.5;entryY=0;entryDx=0;entryDy=0;endArrow=none;endFill=0;" parent="1" source="YYn6IUKF3a_wOfG9WKZp-114" target="YYn6IUKF3a_wOfG9WKZp-77" edge="1">
          <mxGeometry relative="1" as="geometry" />
        </mxCell>
        <mxCell id="YYn6IUKF3a_wOfG9WKZp-114" value="" style="shape=requiredInterface;html=1;verticalLabelPosition=bottom;sketch=0;rotation=-90;" parent="1" vertex="1">
          <mxGeometry x="865" y="210" width="10" height="20" as="geometry" />
        </mxCell>
        <mxCell id="YYn6IUKF3a_wOfG9WKZp-115" style="edgeStyle=orthogonalEdgeStyle;rounded=0;orthogonalLoop=1;jettySize=auto;html=1;exitX=0.5;exitY=1;exitDx=0;exitDy=0;entryX=1;entryY=0.5;entryDx=0;entryDy=0;entryPerimeter=0;endArrow=none;endFill=0;" parent="1" source="YYn6IUKF3a_wOfG9WKZp-78" target="YYn6IUKF3a_wOfG9WKZp-112" edge="1">
          <mxGeometry relative="1" as="geometry" />
        </mxCell>
        <mxCell id="YYn6IUKF3a_wOfG9WKZp-116" style="edgeStyle=orthogonalEdgeStyle;rounded=0;orthogonalLoop=1;jettySize=auto;html=1;exitX=0.5;exitY=1;exitDx=0;exitDy=0;entryX=1;entryY=0.5;entryDx=0;entryDy=0;entryPerimeter=0;endArrow=none;endFill=0;" parent="1" source="YYn6IUKF3a_wOfG9WKZp-79" target="YYn6IUKF3a_wOfG9WKZp-111" edge="1">
          <mxGeometry relative="1" as="geometry" />
        </mxCell>
        <mxCell id="YYn6IUKF3a_wOfG9WKZp-117" style="edgeStyle=orthogonalEdgeStyle;rounded=0;orthogonalLoop=1;jettySize=auto;html=1;exitX=0.5;exitY=1;exitDx=0;exitDy=0;entryX=1;entryY=0.5;entryDx=0;entryDy=0;entryPerimeter=0;endArrow=none;endFill=0;" parent="1" source="YYn6IUKF3a_wOfG9WKZp-80" target="YYn6IUKF3a_wOfG9WKZp-113" edge="1">
          <mxGeometry relative="1" as="geometry" />
        </mxCell>
        <mxCell id="YYn6IUKF3a_wOfG9WKZp-118" style="edgeStyle=orthogonalEdgeStyle;rounded=0;orthogonalLoop=1;jettySize=auto;html=1;exitX=0.5;exitY=1;exitDx=0;exitDy=0;entryX=1;entryY=0.5;entryDx=0;entryDy=0;entryPerimeter=0;endArrow=none;endFill=0;" parent="1" source="YYn6IUKF3a_wOfG9WKZp-81" target="YYn6IUKF3a_wOfG9WKZp-114" edge="1">
          <mxGeometry relative="1" as="geometry" />
        </mxCell>
        <mxCell id="YYn6IUKF3a_wOfG9WKZp-123" style="edgeStyle=orthogonalEdgeStyle;rounded=0;orthogonalLoop=1;jettySize=auto;html=1;exitX=0.5;exitY=1;exitDx=0;exitDy=0;entryX=1;entryY=0.5;entryDx=0;entryDy=0;entryPerimeter=0;endArrow=none;endFill=0;" parent="1" source="YYn6IUKF3a_wOfG9WKZp-71" target="YYn6IUKF3a_wOfG9WKZp-107" edge="1">
          <mxGeometry relative="1" as="geometry" />
        </mxCell>
        <mxCell id="YYn6IUKF3a_wOfG9WKZp-127" style="edgeStyle=orthogonalEdgeStyle;rounded=0;orthogonalLoop=1;jettySize=auto;html=1;exitX=0.5;exitY=1;exitDx=0;exitDy=0;entryX=1;entryY=0.5;entryDx=0;entryDy=0;entryPerimeter=0;endArrow=none;endFill=0;" parent="1" source="YYn6IUKF3a_wOfG9WKZp-77" target="YYn6IUKF3a_wOfG9WKZp-110" edge="1">
          <mxGeometry relative="1" as="geometry" />
        </mxCell>
        <mxCell id="YYn6IUKF3a_wOfG9WKZp-128" style="edgeStyle=orthogonalEdgeStyle;rounded=0;orthogonalLoop=1;jettySize=auto;html=1;exitX=0.5;exitY=1;exitDx=0;exitDy=0;entryX=1;entryY=0.5;entryDx=0;entryDy=0;entryPerimeter=0;endArrow=none;endFill=0;" parent="1" source="YYn6IUKF3a_wOfG9WKZp-72" target="YYn6IUKF3a_wOfG9WKZp-109" edge="1">
          <mxGeometry relative="1" as="geometry" />
        </mxCell>
        <mxCell id="YYn6IUKF3a_wOfG9WKZp-129" style="edgeStyle=orthogonalEdgeStyle;rounded=0;orthogonalLoop=1;jettySize=auto;html=1;exitX=0.5;exitY=1;exitDx=0;exitDy=0;entryX=1;entryY=0.5;entryDx=0;entryDy=0;entryPerimeter=0;endArrow=none;endFill=0;" parent="1" source="YYn6IUKF3a_wOfG9WKZp-61" target="YYn6IUKF3a_wOfG9WKZp-108" edge="1">
          <mxGeometry relative="1" as="geometry" />
        </mxCell>
        <mxCell id="YYn6IUKF3a_wOfG9WKZp-136" style="edgeStyle=orthogonalEdgeStyle;rounded=0;orthogonalLoop=1;jettySize=auto;html=1;exitX=1;exitY=0.5;exitDx=0;exitDy=0;entryX=0;entryY=0.5;entryDx=0;entryDy=0;endArrow=none;endFill=0;" parent="1" source="YYn6IUKF3a_wOfG9WKZp-133" target="YYn6IUKF3a_wOfG9WKZp-134" edge="1">
          <mxGeometry relative="1" as="geometry" />
        </mxCell>
        <mxCell id="YYn6IUKF3a_wOfG9WKZp-133" value="" style="rounded=0;whiteSpace=wrap;html=1;" parent="1" vertex="1">
          <mxGeometry x="890" y="135" width="20" height="20" as="geometry" />
        </mxCell>
        <mxCell id="YYn6IUKF3a_wOfG9WKZp-137" style="edgeStyle=orthogonalEdgeStyle;rounded=0;orthogonalLoop=1;jettySize=auto;html=1;exitX=1;exitY=0.5;exitDx=0;exitDy=0;entryX=0;entryY=0.5;entryDx=0;entryDy=0;endArrow=none;endFill=0;" parent="1" source="YYn6IUKF3a_wOfG9WKZp-134" target="YYn6IUKF3a_wOfG9WKZp-62" edge="1">
          <mxGeometry relative="1" as="geometry" />
        </mxCell>
        <mxCell id="YYn6IUKF3a_wOfG9WKZp-134" value="" style="ellipse;whiteSpace=wrap;html=1;" parent="1" vertex="1">
          <mxGeometry x="930" y="135" width="20" height="20" as="geometry" />
        </mxCell>
        <mxCell id="YYn6IUKF3a_wOfG9WKZp-135" value="" style="ellipse;whiteSpace=wrap;html=1;" parent="1" vertex="1">
          <mxGeometry x="1020" y="135" width="20" height="20" as="geometry" />
        </mxCell>
        <mxCell id="YYn6IUKF3a_wOfG9WKZp-141" value="Conference Videos Preparer" style="text;html=1;align=left;verticalAlign=middle;whiteSpace=wrap;rounded=0;" parent="1" vertex="1">
          <mxGeometry x="1040" y="130" width="100" height="30" as="geometry" />
        </mxCell>
      </root>
    </mxGraphModel>
  </diagram>
</mxfile>
